<svg version="1.1" id="Layer_1" xmlns="http://www.w3.org/2000/svg" xmlns:xlink="http://www.w3.org/1999/xlink" x="0px" y="0px"
	 width="100%" viewBox="0 0 2400 2400" enable-background="new 0 0 2400 2400" xml:space="preserve">
<path fill="#000000" opacity="1.000000" stroke="none" 
	d="
M1590.000000,2402.000000 
	C1060.000000,2402.000000 531.000000,2402.000000 2.000000,2402.000000 
	C2.000000,1602.000000 2.000000,802.000000 2.000000,2.000000 
	C802.000000,2.000000 1602.000000,2.000000 2402.000000,2.000000 
	C2402.000000,802.000000 2402.000000,1602.000000 2402.000000,2402.000000 
	C2131.666748,2402.000000 1861.333374,2402.000000 1590.000000,2402.000000 
M326.113159,1554.285889 
	C326.113159,1548.935059 326.113159,1543.584351 326.113159,1538.233521 
	C325.321503,1538.223145 324.529877,1538.212646 323.738220,1538.202148 
	C323.581512,1544.265869 323.424805,1550.329468 322.565918,1557.604736 
	C319.483734,1591.429443 307.274719,1622.195312 289.346191,1650.513062 
	C257.726471,1700.455444 214.186890,1735.133057 156.278580,1750.288452 
	C149.745178,1751.998413 143.073761,1753.181030 136.466339,1754.608154 
	C136.527969,1755.013794 136.589584,1755.419556 136.651199,1755.825195 
	C260.917480,1755.825195 385.183777,1755.825195 509.450043,1755.825195 
	C508.618652,1754.198975 507.565399,1753.949463 506.525879,1753.651733 
	C491.889252,1749.459839 476.495697,1746.953491 462.744232,1740.786133 
	C382.765106,1704.916260 338.128326,1642.357910 326.113159,1554.285889 
M1020.287109,736.356140 
	C1023.671753,720.175110 1025.539062,703.487671 1030.736694,687.911621 
	C1044.235596,647.458862 1066.556396,612.427002 1099.667358,584.883179 
	C1127.944214,561.360596 1159.270386,544.010925 1195.983154,537.633301 
	C1199.257202,537.064575 1202.448120,536.018127 1205.677734,535.193542 
	C1205.587646,534.895142 1205.497559,534.596741 1205.407471,534.298340 
	C1080.534424,534.298340 955.661316,534.298340 830.788208,534.298340 
	C842.192261,537.864502 853.870483,539.975891 864.977905,543.761902 
	C900.532715,555.880798 930.934814,576.017822 956.377808,603.780457 
	C991.341370,641.931580 1012.638306,686.253601 1017.822083,739.601379 
	C1017.822083,743.723755 1017.822083,747.846191 1017.822083,751.968567 
	C1018.576721,751.989502 1019.331421,752.010498 1020.086060,752.031433 
	C1020.086060,747.353760 1020.086060,742.676086 1020.287109,736.356140 
M1784.165649,1754.335815 
	C1799.925903,1752.338013 1815.757446,1750.783813 1831.433716,1748.263306 
	C1889.818604,1738.876221 1944.124268,1717.826904 1995.335693,1688.822998 
	C2047.249268,1659.421265 2092.775146,1621.921143 2132.914307,1577.732178 
	C2168.466797,1538.592407 2197.914551,1495.290649 2221.952148,1448.351196 
	C2249.178711,1395.184448 2268.919678,1339.330566 2280.765381,1280.659424 
	C2287.603760,1246.789795 2292.038086,1212.628418 2293.380859,1178.212402 
	C2294.388916,1152.369141 2292.946045,1126.419678 2292.299072,1100.524902 
	C2291.451660,1066.597778 2285.937012,1033.255737 2278.860840,1000.156250 
	C2267.200684,945.615540 2248.007568,893.796997 2222.819580,844.062927 
	C2187.662109,774.643677 2140.657471,714.468933 2081.874512,663.684265 
	C2045.024902,631.848572 2004.453491,605.423706 1960.619019,583.914917 
	C1906.321777,557.272217 1848.921509,542.374817 1788.987183,536.390442 
	C1785.686157,536.060852 1782.326782,536.312439 1778.994507,536.304077 
	C1775.880981,536.296204 1772.767578,536.302429 1769.654053,536.302429 
	C1798.823975,543.102783 1823.524780,557.229309 1844.537231,578.030884 
	C1866.571777,599.844299 1882.531250,625.850159 1895.744995,653.609924 
	C1911.497681,686.703186 1922.718018,721.456848 1931.598633,756.923584 
	C1945.875000,813.938782 1954.078247,871.993164 1959.572998,930.432434 
	C1962.085205,957.151184 1964.218018,983.931335 1965.507324,1010.732483 
	C1967.024170,1042.267944 1968.160522,1073.856323 1968.160889,1105.421753 
	C1968.161499,1151.334839 1967.322998,1197.255859 1966.206299,1243.157959 
	C1965.577271,1269.017334 1964.281494,1294.895142 1962.189453,1320.675659 
	C1959.485107,1354.003418 1956.026611,1387.281006 1952.279419,1420.510986 
	C1946.282227,1473.694580 1935.338867,1525.921509 1919.392456,1577.001099 
	C1907.969971,1613.589355 1893.243896,1648.833496 1871.622681,1680.763916 
	C1848.846436,1714.400269 1820.147705,1740.606079 1778.440796,1751.903320 
	C1774.068726,1752.939453 1769.696533,1753.975464 1765.324463,1755.011597 
	C1765.449829,1755.623413 1765.575317,1756.235107 1765.700806,1756.846924 
	C1771.263672,1756.026733 1776.826660,1755.206665 1784.165649,1754.335815 
M1707.552368,540.016968 
	C1711.583984,539.042908 1715.615723,538.068909 1719.647339,537.094849 
	C1719.551636,536.524170 1719.455811,535.953491 1719.360107,535.382812 
	C1714.855835,535.785461 1710.351562,536.188110 1704.158447,536.355713 
	C1698.230103,536.902344 1692.296387,537.395630 1686.374512,538.005005 
	C1662.270630,540.485596 1638.545776,545.007996 1615.112305,551.154175 
	C1567.192261,563.722473 1522.608032,583.753784 1480.304565,609.499817 
	C1430.121826,640.041321 1386.026123,677.679077 1347.309082,721.577759 
	C1307.699463,766.488708 1276.035400,816.635925 1251.116333,871.149841 
	C1217.603271,944.463989 1199.225830,1021.492920 1194.542236,1101.721680 
	C1192.198364,1141.873535 1192.980103,1182.086792 1197.520386,1222.204102 
	C1201.521240,1257.555664 1207.858032,1292.382446 1217.456665,1326.610474 
	C1236.547607,1394.687866 1266.060059,1457.903564 1306.008545,1516.273926 
	C1340.466309,1566.621826 1381.615723,1610.648926 1430.141357,1647.616943 
	C1490.100220,1693.294800 1556.377075,1726.013428 1630.005005,1743.123779 
	C1654.880005,1748.904297 1679.936401,1753.834351 1706.656738,1755.603638 
	C1711.928467,1755.603638 1717.200195,1755.603638 1722.471924,1755.603638 
	C1722.520386,1755.291382 1722.568726,1754.979126 1722.617188,1754.666870 
	C1717.703125,1753.842285 1712.789062,1753.017700 1706.459473,1751.742310 
	C1696.399536,1747.497803 1685.902832,1744.054443 1676.364990,1738.852905 
	C1651.618530,1725.356445 1632.825806,1705.278442 1617.021851,1682.271240 
	C1594.800659,1649.921997 1580.033691,1614.110107 1568.111816,1576.941162 
	C1549.293823,1518.272339 1539.070923,1457.872314 1531.846313,1396.903687 
	C1529.080566,1373.563965 1527.457520,1350.079468 1525.696899,1326.632324 
	C1523.687744,1299.872314 1521.776978,1273.096680 1520.456055,1246.296509 
	C1519.604370,1229.020264 1519.781250,1211.688232 1519.695190,1194.380371 
	C1519.583374,1171.847778 1519.420532,1149.311035 1519.727417,1126.782227 
	C1520.157715,1095.202881 1520.686035,1063.618652 1521.770020,1032.056885 
	C1522.577759,1008.534546 1524.149902,985.032532 1525.721680,961.544189 
	C1527.027100,942.037537 1528.249390,922.496216 1530.526978,903.089722 
	C1535.701782,859.000305 1542.148926,815.086670 1552.287598,771.812256 
	C1563.375366,724.486084 1577.798828,678.340515 1601.072144,635.352966 
	C1615.135742,609.376282 1632.582153,586.155212 1655.364746,567.101929 
	C1670.390259,554.535889 1687.645020,546.247009 1707.552368,540.016968 
M930.999878,1756.329590 
	C992.462891,1756.329590 1053.925903,1756.329590 1115.388916,1756.329590 
	C1114.924194,1754.524048 1114.280884,1753.887207 1113.534058,1753.723145 
	C1091.300659,1748.842529 1073.059082,1737.207153 1057.999634,1720.467651 
	C1037.530396,1697.714844 1025.406372,1671.722046 1025.552734,1640.319580 
	C1025.905273,1564.671387 1025.666870,1489.020508 1025.666870,1413.370728 
	C1025.666870,1409.240479 1025.666992,1405.110352 1025.666992,1400.026367 
	C1022.989990,1406.479126 1021.189636,1412.091797 1018.452393,1417.202759 
	C1004.381165,1443.476196 971.455139,1449.333618 949.612732,1435.949463 
	C939.571228,1429.796509 933.677368,1420.156860 929.881775,1409.174561 
	C920.987305,1383.438843 912.077209,1357.708496 903.181824,1331.973145 
	C871.829834,1241.268311 840.481812,1150.562012 809.131470,1059.856567 
	C777.781189,969.151123 746.408264,878.453552 715.085693,787.738525 
	C689.292786,713.038269 663.575012,638.312073 637.779846,563.612610 
	C634.342834,553.659485 630.646301,543.795898 627.193848,534.234070 
	C597.460083,531.997864 232.052719,533.056824 224.527908,535.540527 
	C253.626587,540.825256 275.667023,556.582275 293.096649,578.995972 
	C309.408752,599.972534 318.775635,623.284058 318.551300,650.715759 
	C317.924561,727.360168 318.333282,804.013062 318.333282,880.662598 
	C318.333282,883.813782 318.333252,886.965027 318.333252,891.770020 
	C320.499481,885.242920 321.790131,880.231201 323.786377,875.518311 
	C338.556335,840.648254 382.632446,840.744019 400.216583,860.527222 
	C406.618591,867.729858 410.662903,875.934570 413.706055,884.713745 
	C445.572998,976.646790 477.285706,1068.633301 509.078979,1160.591919 
	C532.299438,1227.754272 555.579834,1294.896118 578.827087,1362.049316 
	C592.406250,1401.274902 605.966431,1440.506958 619.546509,1479.732300 
	C645.076843,1553.475464 670.611328,1627.217285 696.153381,1700.956299 
	C702.528809,1719.361694 708.940369,1737.754517 715.396606,1756.329590 
	C787.071167,1756.329590 858.035461,1756.329590 930.999878,1756.329590 
M264.052490,1232.418091 
	C267.754456,1233.886475 271.447540,1235.377441 275.159821,1236.819214 
	C292.561066,1243.578125 304.689880,1256.007690 311.482056,1273.020142 
	C316.007355,1284.354614 318.787598,1296.405396 322.041534,1308.220215 
	C323.851959,1314.793823 325.032501,1321.541016 326.496948,1328.209839 
	C327.878815,1327.031738 328.098633,1326.074829 328.354218,1325.127563 
	C332.838257,1308.509888 336.437897,1291.586426 342.042725,1275.355347 
	C348.810822,1255.755737 362.761749,1242.254639 382.639038,1235.632080 
	C393.314178,1232.075562 404.201538,1229.129272 415.067841,1226.183228 
	C421.629578,1224.404175 428.334595,1223.153687 437.163818,1221.175049 
	C433.502747,1220.325073 432.202911,1220.062744 430.924500,1219.720581 
	C413.986115,1215.184814 396.812256,1211.362549 380.181946,1205.889160 
	C363.701141,1200.464966 351.686340,1188.936523 344.483246,1173.101562 
	C340.928925,1165.287842 338.240723,1157.000732 335.953247,1148.709229 
	C332.761444,1137.139893 330.311646,1125.365723 327.021606,1111.471558 
	C325.599274,1118.713623 324.892792,1123.655396 323.634491,1128.452393 
	C320.522400,1140.316406 317.650879,1152.277954 313.789032,1163.903564 
	C306.362488,1186.260132 290.975342,1201.146484 268.564026,1208.097168 
	C252.460403,1213.091675 236.008957,1216.964844 219.590683,1221.370972 
	C233.791962,1224.908447 248.143234,1228.483276 264.052490,1232.418091 
M1806.659058,1150.536743 
	C1784.811035,1144.355469 1768.782715,1131.307861 1760.807007,1109.825195 
	C1756.436035,1098.051758 1753.443237,1085.755371 1750.070190,1073.627686 
	C1748.358643,1067.474243 1747.181641,1061.172363 1745.612427,1054.275513 
	C1741.610352,1070.142944 1738.370117,1085.067871 1734.045044,1099.671509 
	C1726.815308,1124.082153 1712.123413,1142.052979 1686.979980,1149.623535 
	C1673.977295,1153.538574 1660.710083,1156.576538 1647.558105,1159.994019 
	C1644.466553,1160.797485 1641.357544,1161.533569 1636.882690,1162.640503 
	C1652.778931,1166.628784 1667.017090,1169.820801 1681.022949,1173.824951 
	C1694.213501,1177.595947 1706.460693,1183.253174 1716.210327,1193.578857 
	C1726.370972,1204.339722 1731.813232,1217.415894 1735.626343,1231.248413 
	C1739.170776,1244.106323 1741.881836,1257.193848 1745.320923,1271.703491 
	C1746.502563,1266.720093 1747.238892,1263.186035 1748.183228,1259.708740 
	C1752.001465,1245.647705 1755.116699,1231.335327 1759.924805,1217.618042 
	C1766.898804,1197.721924 1780.654541,1183.545654 1800.910645,1177.021729 
	C1817.914185,1171.545166 1835.325195,1167.333740 1852.407959,1162.603149 
	C1837.949463,1158.890869 1823.016235,1155.056763 1806.659058,1150.536743 
z"/>
<path fill="#FEFEFE" opacity="1.000000" stroke="none" 
	d="
M929.999817,1756.329590 
	C858.035461,1756.329590 787.071167,1756.329590 715.396606,1756.329590 
	C708.940369,1737.754517 702.528809,1719.361694 696.153381,1700.956299 
	C670.611328,1627.217285 645.076843,1553.475464 619.546509,1479.732300 
	C605.966431,1440.506958 592.406250,1401.274902 578.827087,1362.049316 
	C555.579834,1294.896118 532.299438,1227.754272 509.078979,1160.591919 
	C477.285706,1068.633301 445.572998,976.646790 413.706055,884.713745 
	C410.662903,875.934570 406.618591,867.729858 400.216583,860.527222 
	C382.632446,840.744019 338.556335,840.648254 323.786377,875.518311 
	C321.790131,880.231201 320.499481,885.242920 318.333252,891.770020 
	C318.333252,886.965027 318.333282,883.813782 318.333282,880.662598 
	C318.333282,804.013062 317.924561,727.360168 318.551300,650.715759 
	C318.775635,623.284058 309.408752,599.972534 293.096649,578.995972 
	C275.667023,556.582275 253.626587,540.825256 224.527908,535.540527 
	C232.052719,533.056824 597.460083,531.997864 627.193848,534.234070 
	C630.646301,543.795898 634.342834,553.659485 637.779846,563.612610 
	C663.575012,638.312073 689.292786,713.038269 715.085693,787.738525 
	C746.408264,878.453552 777.781189,969.151123 809.131470,1059.856567 
	C840.481812,1150.562012 871.829834,1241.268311 903.181824,1331.973145 
	C912.077209,1357.708496 920.987305,1383.438843 929.881775,1409.174561 
	C933.677368,1420.156860 939.571228,1429.796509 949.612732,1435.949463 
	C971.455139,1449.333618 1004.381165,1443.476196 1018.452393,1417.202759 
	C1021.189636,1412.091797 1022.989990,1406.479126 1025.666992,1400.026367 
	C1025.666992,1405.110352 1025.666870,1409.240479 1025.666870,1413.370728 
	C1025.666870,1489.020508 1025.905273,1564.671387 1025.552734,1640.319580 
	C1025.406372,1671.722046 1037.530396,1697.714844 1057.999634,1720.467651 
	C1073.059082,1737.207153 1091.300659,1748.842529 1113.534058,1753.723145 
	C1114.280884,1753.887207 1114.924194,1754.524048 1115.388916,1756.329590 
	C1053.925903,1756.329590 992.462891,1756.329590 929.999817,1756.329590 
z"/>
<path fill="#FEFEFE" opacity="1.000000" stroke="none" 
	d="
M1705.616089,1754.388184 
	C1679.936401,1753.834351 1654.880005,1748.904297 1630.005005,1743.123779 
	C1556.377075,1726.013428 1490.100220,1693.294800 1430.141357,1647.616943 
	C1381.615723,1610.648926 1340.466309,1566.621826 1306.008545,1516.273926 
	C1266.060059,1457.903564 1236.547607,1394.687866 1217.456665,1326.610474 
	C1207.858032,1292.382446 1201.521240,1257.555664 1197.520386,1222.204102 
	C1192.980103,1182.086792 1192.198364,1141.873535 1194.542236,1101.721680 
	C1199.225830,1021.492920 1217.603271,944.463989 1251.116333,871.149841 
	C1276.035400,816.635925 1307.699463,766.488708 1347.309082,721.577759 
	C1386.026123,677.679077 1430.121826,640.041321 1480.304565,609.499817 
	C1522.608032,583.753784 1567.192261,563.722473 1615.112305,551.154175 
	C1638.545776,545.007996 1662.270630,540.485596 1686.374512,538.005005 
	C1692.296387,537.395630 1698.230103,536.902344 1704.948486,537.015076 
	C1705.809082,538.395752 1705.879639,539.117004 1705.950195,539.838318 
	C1687.645020,546.247009 1670.390259,554.535889 1655.364746,567.101929 
	C1632.582153,586.155212 1615.135742,609.376282 1601.072144,635.352966 
	C1577.798828,678.340515 1563.375366,724.486084 1552.287598,771.812256 
	C1542.148926,815.086670 1535.701782,859.000305 1530.526978,903.089722 
	C1528.249390,922.496216 1527.027100,942.037537 1525.721680,961.544189 
	C1524.149902,985.032532 1522.577759,1008.534546 1521.770020,1032.056885 
	C1520.686035,1063.618652 1520.157715,1095.202881 1519.727417,1126.782227 
	C1519.420532,1149.311035 1519.583374,1171.847778 1519.695190,1194.380371 
	C1519.781250,1211.688232 1519.604370,1229.020264 1520.456055,1246.296509 
	C1521.776978,1273.096680 1523.687744,1299.872314 1525.696899,1326.632324 
	C1527.457520,1350.079468 1529.080566,1373.563965 1531.846313,1396.903687 
	C1539.070923,1457.872314 1549.293823,1518.272339 1568.111816,1576.941162 
	C1580.033691,1614.110107 1594.800659,1649.921997 1617.021851,1682.271240 
	C1632.825806,1705.278442 1651.618530,1725.356445 1676.364990,1738.852905 
	C1685.902832,1744.054443 1696.399536,1747.497803 1706.935791,1752.457275 
	C1706.813354,1753.577515 1706.214722,1753.982788 1705.616089,1754.388184 
z"/>
<path fill="#FEFEFE" opacity="1.000000" stroke="none" 
	d="
M1780.037964,1752.062988 
	C1820.147705,1740.606079 1848.846436,1714.400269 1871.622681,1680.763916 
	C1893.243896,1648.833496 1907.969971,1613.589355 1919.392456,1577.001099 
	C1935.338867,1525.921509 1946.282227,1473.694580 1952.279419,1420.510986 
	C1956.026611,1387.281006 1959.485107,1354.003418 1962.189453,1320.675659 
	C1964.281494,1294.895142 1965.577271,1269.017334 1966.206299,1243.157959 
	C1967.322998,1197.255859 1968.161499,1151.334839 1968.160889,1105.421753 
	C1968.160522,1073.856323 1967.024170,1042.267944 1965.507324,1010.732483 
	C1964.218018,983.931335 1962.085205,957.151184 1959.572998,930.432434 
	C1954.078247,871.993164 1945.875000,813.938782 1931.598633,756.923584 
	C1922.718018,721.456848 1911.497681,686.703186 1895.744995,653.609924 
	C1882.531250,625.850159 1866.571777,599.844299 1844.537231,578.030884 
	C1823.524780,557.229309 1798.823975,543.102783 1769.654053,536.302429 
	C1772.767578,536.302429 1775.880981,536.296204 1778.994507,536.304077 
	C1782.326782,536.312439 1785.686157,536.060852 1788.987183,536.390442 
	C1848.921509,542.374817 1906.321777,557.272217 1960.619019,583.914917 
	C2004.453491,605.423706 2045.024902,631.848572 2081.874512,663.684265 
	C2140.657471,714.468933 2187.662109,774.643677 2222.819580,844.062927 
	C2248.007568,893.796997 2267.200684,945.615540 2278.860840,1000.156250 
	C2285.937012,1033.255737 2291.451660,1066.597778 2292.299072,1100.524902 
	C2292.946045,1126.419678 2294.388916,1152.369141 2293.380859,1178.212402 
	C2292.038086,1212.628418 2287.603760,1246.789795 2280.765381,1280.659424 
	C2268.919678,1339.330566 2249.178711,1395.184448 2221.952148,1448.351196 
	C2197.914551,1495.290649 2168.466797,1538.592407 2132.914307,1577.732178 
	C2092.775146,1621.921143 2047.249268,1659.421265 1995.335693,1688.822998 
	C1944.124268,1717.826904 1889.818604,1738.876221 1831.433716,1748.263306 
	C1815.757446,1750.783813 1799.925903,1752.338013 1782.775024,1754.065186 
	C1780.935547,1753.217285 1780.486816,1752.640137 1780.037964,1752.062988 
z"/>
<path fill="#FDFDFD" opacity="1.000000" stroke="none" 
	d="
M1018.120239,737.915649 
	C1012.638306,686.253601 991.341370,641.931580 956.377808,603.780457 
	C930.934814,576.017822 900.532715,555.880798 864.977905,543.761902 
	C853.870483,539.975891 842.192261,537.864502 830.788208,534.298340 
	C955.661316,534.298340 1080.534424,534.298340 1205.407471,534.298340 
	C1205.497559,534.596741 1205.587646,534.895142 1205.677734,535.193542 
	C1202.448120,536.018127 1199.257202,537.064575 1195.983154,537.633301 
	C1159.270386,544.010925 1127.944214,561.360596 1099.667358,584.883179 
	C1066.556396,612.427002 1044.235596,647.458862 1030.736694,687.911621 
	C1025.539062,703.487671 1023.671753,720.175110 1019.692627,737.216797 
	C1019.098083,738.077454 1018.120239,737.915649 1018.120239,737.915649 
z"/>
<path fill="#FDFDFD" opacity="1.000000" stroke="none" 
	d="
M325.911163,1556.040283 
	C338.128326,1642.357910 382.765106,1704.916260 462.744232,1740.786133 
	C476.495697,1746.953491 491.889252,1749.459839 506.525879,1753.651733 
	C507.565399,1753.949463 508.618652,1754.198975 509.450043,1755.825195 
	C385.183777,1755.825195 260.917480,1755.825195 136.651199,1755.825195 
	C136.589584,1755.419556 136.527969,1755.013794 136.466339,1754.608154 
	C143.073761,1753.181030 149.745178,1751.998413 156.278580,1750.288452 
	C214.186890,1735.133057 257.726471,1700.455444 289.346191,1650.513062 
	C307.274719,1622.195312 319.483734,1591.429443 323.373352,1557.013672 
	C324.180756,1556.422729 324.999603,1556.021606 324.999603,1556.021606 
	C324.999603,1556.021606 325.911163,1556.040283 325.911163,1556.040283 
z"/>
<path fill="#FBFBFB" opacity="1.000000" stroke="none" 
	d="
M263.273499,1232.238037 
	C248.143234,1228.483276 233.791962,1224.908447 219.590683,1221.370972 
	C236.008957,1216.964844 252.460403,1213.091675 268.564026,1208.097168 
	C290.975342,1201.146484 306.362488,1186.260132 313.789032,1163.903564 
	C317.650879,1152.277954 320.522400,1140.316406 323.634491,1128.452393 
	C324.892792,1123.655396 325.599274,1118.713623 327.021606,1111.471558 
	C330.311646,1125.365723 332.761444,1137.139893 335.953247,1148.709229 
	C338.240723,1157.000732 340.928925,1165.287842 344.483246,1173.101562 
	C351.686340,1188.936523 363.701141,1200.464966 380.181946,1205.889160 
	C396.812256,1211.362549 413.986115,1215.184814 430.924500,1219.720581 
	C432.202911,1220.062744 433.502747,1220.325073 437.163818,1221.175049 
	C428.334595,1223.153687 421.629578,1224.404175 415.067841,1226.183228 
	C404.201538,1229.129272 393.314178,1232.075562 382.639038,1235.632080 
	C362.761749,1242.254639 348.810822,1255.755737 342.042725,1275.355347 
	C336.437897,1291.586426 332.838257,1308.509888 328.354218,1325.127563 
	C328.098633,1326.074829 327.878815,1327.031738 326.496948,1328.209839 
	C325.032501,1321.541016 323.851959,1314.793823 322.041534,1308.220215 
	C318.787598,1296.405396 316.007355,1284.354614 311.482056,1273.020142 
	C304.689880,1256.007690 292.561066,1243.578125 275.159821,1236.819214 
	C271.447540,1235.377441 267.754456,1233.886475 263.273499,1232.238037 
z"/>
<path fill="#FAFAFA" opacity="1.000000" stroke="none" 
	d="
M1807.371094,1150.879761 
	C1823.016235,1155.056763 1837.949463,1158.890869 1852.407959,1162.603149 
	C1835.325195,1167.333740 1817.914185,1171.545166 1800.910645,1177.021729 
	C1780.654541,1183.545654 1766.898804,1197.721924 1759.924805,1217.618042 
	C1755.116699,1231.335327 1752.001465,1245.647705 1748.183228,1259.708740 
	C1747.238892,1263.186035 1746.502563,1266.720093 1745.320923,1271.703491 
	C1741.881836,1257.193848 1739.170776,1244.106323 1735.626343,1231.248413 
	C1731.813232,1217.415894 1726.370972,1204.339722 1716.210327,1193.578857 
	C1706.460693,1183.253174 1694.213501,1177.595947 1681.022949,1173.824951 
	C1667.017090,1169.820801 1652.778931,1166.628784 1636.882690,1162.640503 
	C1641.357544,1161.533569 1644.466553,1160.797485 1647.558105,1159.994019 
	C1660.710083,1156.576538 1673.977295,1153.538574 1686.979980,1149.623535 
	C1712.123413,1142.052979 1726.815308,1124.082153 1734.045044,1099.671509 
	C1738.370117,1085.067871 1741.610352,1070.142944 1745.612427,1054.275513 
	C1747.181641,1061.172363 1748.358643,1067.474243 1750.070190,1073.627686 
	C1753.443237,1085.755371 1756.436035,1098.051758 1760.807007,1109.825195 
	C1768.782715,1131.307861 1784.811035,1144.355469 1807.371094,1150.879761 
z"/>
<path fill="#B6B6B6" opacity="1.000000" stroke="none" 
	d="
M326.012146,1555.163086 
	C325.911163,1556.040283 324.999603,1556.021606 324.999603,1556.021606 
	C324.999603,1556.021606 324.180756,1556.422729 323.724426,1556.407959 
	C323.424805,1550.329468 323.581512,1544.265869 323.738220,1538.202148 
	C324.529877,1538.212646 325.321503,1538.223145 326.113159,1538.233521 
	C326.113159,1543.584351 326.113159,1548.935059 326.012146,1555.163086 
z"/>
<path fill="#ACACAC" opacity="1.000000" stroke="none" 
	d="
M1779.239380,1751.983154 
	C1780.486816,1752.640137 1780.935547,1753.217285 1781.886963,1754.090454 
	C1776.826660,1755.206665 1771.263672,1756.026733 1765.700806,1756.846924 
	C1765.575317,1756.235107 1765.449829,1755.623413 1765.324463,1755.011597 
	C1769.696533,1753.975464 1774.068726,1752.939453 1779.239380,1751.983154 
z"/>
<path fill="#A8A8A8" opacity="1.000000" stroke="none" 
	d="
M1706.136475,1754.995850 
	C1706.214722,1753.982788 1706.813354,1753.577515 1707.643555,1752.682739 
	C1712.789062,1753.017700 1717.703125,1753.842285 1722.617188,1754.666870 
	C1722.568726,1754.979126 1722.520386,1755.291382 1722.471924,1755.603638 
	C1717.200195,1755.603638 1711.928467,1755.603638 1706.136475,1754.995850 
z"/>
<path fill="#929292" opacity="1.000000" stroke="none" 
	d="
M1017.971191,738.758545 
	C1018.120239,737.915649 1019.098083,738.077454 1019.592041,738.037964 
	C1020.086060,742.676086 1020.086060,747.353760 1020.086060,752.031433 
	C1019.331421,752.010498 1018.576721,751.989502 1017.822083,751.968567 
	C1017.822083,747.846191 1017.822083,743.723755 1017.971191,738.758545 
z"/>
<path fill="#C9C9C9" opacity="1.000000" stroke="none" 
	d="
M1706.751221,539.927612 
	C1705.879639,539.117004 1705.809082,538.395752 1705.792847,537.132629 
	C1710.351562,536.188110 1714.855835,535.785461 1719.360107,535.382812 
	C1719.455811,535.953491 1719.551636,536.524170 1719.647339,537.094849 
	C1715.615723,538.068909 1711.583984,539.042908 1706.751221,539.927612 
z"/>
</svg>